<svg width="5000" height="5000" xmlns="http://www.w3.org/2000/svg" xml:space="preserve" enable-background="new 0 0 5000 5000" version="1.1">

 <g>
  <title>Layer 1</title>
  <g id="레이어_1">
   <g id="XMLID_1_">
    <g id="svg_2">
     <path id="svg_3" d="m3410,2227c24.51,56.4 29.4,125.99 5,187c-4.07,10.17 -5.64,19.32 -11,28c-3.96,6.41 -9.96,12.63 -14,19c-7.79,12.28 -11.96,23.97 -28,14c-0.33,-3.33 -0.67,-6.67 -1,-10c42.82,-40.15 64.85,-144.35 36,-215c-4.75,-11.64 -10.33,-36.17 -19,-43c-0.09,-3.3 -0.24,-7.16 1,-9c1.23,-3.49 2.82,-3.73 5,-6c2.67,0 5.33,0 8,0c12.09,12.61 10.71,18.23 18,35z" fill="#9E4723"/>
     <path id="svg_4" d="m3352,2485c3.84,1.4 3.61,3.44 6,6c-0.56,24.75 -42.51,42.47 -62,51c-13.73,6.01 -29.06,10.86 -46,15c-11.33,0.33 -22.67,0.67 -34,1c-24,0 -48,0 -72,0c-62.99,0.33 -126.01,0.67 -189,1c-30.33,0 -60.67,0 -91,0c-14.16,2.76 -40.9,1 -60,1c-59.66,0 -119.34,0 -179,0c-180.98,1 -362.02,2 -543,3c-42.33,0 -84.67,0 -127,0c-21.05,0 -49.92,-1.72 -66,1c-38.33,0 -76.67,0 -115,0c-63.88,0 -125.18,3.34 -178,-9c-28.49,-6.65 -56.44,-6.31 -79,-18c-49.45,-25.63 -90.77,-61.43 -113,-114c-8.37,-19.78 -13.76,-40.58 -19,-63c-4.67,-20 -1.23,-57.76 3,-74c2.45,-9.4 2.15,-17.32 5,-26c9.88,-30.1 26.5,-56.57 42,-81c6.06,-9.54 12.81,-21.81 22,-28c2.22,-1.49 5.05,-1.41 7,-3c3.84,0.09 5.93,0.34 8,2c3.84,2.52 5.12,5.41 5,12c-30.35,27.9 -51.86,68.21 -66,112c-10.68,33.07 -6.35,81.84 3,111c21.29,66.38 61.32,117.55 128,138c16.27,4.99 33.62,7.14 50,11c9.33,0.67 18.67,1.33 28,2c40.61,9.61 95.78,7 146,7c81.99,-0.33 164.01,-0.67 246,-1c300.64,-1.33 601.36,-2.67 902,-4c74.33,-0.33 148.67,-0.67 223,-1c24,0 48,0 72,0c17.68,0 34.66,0.81 49,-3c27.6,-7.34 55.07,-19.54 73,-37c4.61,-4.49 12.04,-18.68 21,-12z" fill="#9E4723"/>
     <path id="svg_5" d="m3341,2139c9.28,6.98 15.88,17.75 24,26c-0.03,9.92 -4.51,13.43 -15,13c-25.88,-28.14 -56.48,-46.05 -99,-58c-11.56,-3.25 -30.04,-4.75 -43,-2c-20,0 -40,0 -60,0c-71.33,0 -142.67,0 -214,0c-335.3,0 -670.7,0 -1006,0c-7.14,1.23 -15.52,-1.17 -24,0c-20.67,2.84 -36.85,-0.72 -64,0c-55.36,1.47 -114.98,1 -172,1c-27.54,0 -60.69,-3.74 -85,2c-14.6,3.45 -31.25,4.41 -45,9c-9.14,3.06 -18.73,9.38 -27,12c-5.96,1.89 -10.17,-2.31 -13,-4c-1.09,-4.3 -2.78,-7.21 0,-11c2.76,-7.38 14.49,-9.15 22,-12c13.78,-5.24 30.93,-8.87 47,-13c4.67,-0.33 9.33,-0.67 14,-1c31.32,-7.48 75.62,-4.01 113,-4c69.33,0 138.67,0 208,0c315.64,0 631.36,0 947,0c84.66,0 169.34,0 254,0c22.66,0 45.34,0 68,0c7.27,0 21.87,2.16 27,-1c65.5,0.26 106.01,15.16 143,43z" fill="#9E4723"/>
    </g>
    <g id="svg_6"/>
   </g>
  </g>
 </g>
</svg>